<svg version="1.1" id="Layer_1" xmlns="http://www.w3.org/2000/svg" xmlns:xlink="http://www.w3.org/1999/xlink" x="0px" y="0px"
	 width="1024px" height="1024px" viewBox="0 0 1024 1024" style="enable-background:new 0 0 1024 1024;" xml:space="preserve">
<path style="fill:#666666;" d="M610,515.2c7.1,7.9,11,18.4,11,29.5c0,11.1-3.9,21.5-11,29.5c-3.5,3.9-7.7,7.1-12.3,9.2
	c-3.6,1.7-7.3,2.7-11.2,3.2c-0.7,0.2-1.4,0.3-2.1,0.3h-31c-5,0-9.1-4.1-9.1-9.1c0-5,4.1-9.1,9.1-9.1h28.9
	c11.3,0,20.6-10.7,20.6-23.9c0-12.4-8.2-22.6-18.6-23.8c-0.3,0-0.6,0-0.8,0c-0.6,0-1.1-0.1-1.7-0.2h-28.4c-5,0-9.1-4.1-9.1-9.1
	c0-5,4.1-9.1,9.1-9.1h32.4c10.2-1.3,18.2-11.2,18.2-23.1c0-12.8-9.2-23.3-20.6-23.3c-0.2,0-0.3,0-0.5,0h-29.6c-5,0-9.1-4.1-9.1-9.1
	c0-5,4.1-9.1,9.1-9.1h32.1c0.7,0,1.5,0.1,2.1,0.3c8.9,1,17.2,5.3,23.6,12.2c7.2,7.8,11.1,18.1,11.1,29.1s-3.9,21.3-11.1,29.1
	c-1.3,1.4-2.6,2.7-4,3.8C608.1,513.2,609.1,514.1,610,515.2z M517.6,436.5l-115.8,71.7v7.6l115.8,71.7l4.7-7.6L412.7,512l109.6-67.9
	L517.6,436.5z"/>
</svg>
