<?xml version="1.0" encoding="utf-8"?>
<!-- Generator: Adobe Illustrator 23.0.4, SVG Export Plug-In . SVG Version: 6.00 Build 0)  -->
<svg version="1.1" id="Layer_1" xmlns="http://www.w3.org/2000/svg" xmlns:xlink="http://www.w3.org/1999/xlink" x="0px" y="0px"
	 width="230.39px" height="23px" viewBox="0 0 230.39 23" style="enable-background:new 0 0 230.39 23;" xml:space="preserve">
<style type="text/css">
	.st0{clip-path:url(#SVGID_2_);fill:#1F140F;}
</style>
<g>
	<defs>
		<rect id="SVGID_1_" width="230.39" height="23.03"/>
	</defs>
	<clipPath id="SVGID_2_">
		<use xlink:href="#SVGID_1_"  style="overflow:visible;"/>
	</clipPath>
	<path class="st0" d="M10.32,9.47H2.25c0.17-1.05,0.58-2.01,1.2-2.77c0.77-0.95,1.78-1.48,2.84-1.48s2.06,0.52,2.84,1.48
		C9.74,7.46,10.16,8.42,10.32,9.47 M12.57,10.54c0-1.95-0.63-3.8-1.76-5.2c-0.57-0.7-1.24-1.26-1.99-1.65
		c-0.8-0.42-1.65-0.63-2.53-0.63S4.56,3.28,3.76,3.69C3.01,4.08,2.34,4.64,1.76,5.34C0.63,6.74,0,8.59,0,10.54s0.63,3.8,1.76,5.2
		c0.57,0.7,1.24,1.26,1.99,1.65c0.8,0.41,1.65,0.63,2.53,0.63c1.17,0,2.32-0.38,3.31-1.11c0.93-0.68,1.69-1.64,2.21-2.78
		c0.25-0.54,0.01-1.18-0.54-1.43c-0.54-0.25-1.19-0.01-1.44,0.53c-0.37,0.81-0.9,1.47-1.53,1.94c-0.61,0.45-1.31,0.69-2.02,0.69
		c-1.06,0-2.06-0.52-2.84-1.47c-0.62-0.76-1.03-1.73-1.2-2.77h9.24C12.09,11.62,12.57,11.14,12.57,10.54 M16.81,17V1.51
		c0-0.59-0.49-1.08-1.08-1.08s-1.08,0.48-1.08,1.08V17c0,0.59,0.49,1.07,1.08,1.07S16.81,17.59,16.81,17 M28.04,9.47h-3.59
		l1.79-5.01L28.04,9.47z M32.91,16.64l-2.28-6.37c-0.02-0.07-0.04-0.14-0.07-0.21l-3.28-9.18c-0.15-0.43-0.56-0.72-1.02-0.72
		s-0.87,0.29-1.02,0.72l-3.28,9.18c-0.03,0.07-0.05,0.14-0.07,0.21l-2.28,6.37c-0.2,0.56,0.09,1.17,0.66,1.37
		c0.12,0.04,0.24,0.06,0.36,0.06c0.45,0,0.86-0.28,1.02-0.72l2.05-5.74h5.13l2.05,5.74c0.16,0.44,0.58,0.72,1.02,0.72
		c0.12,0,0.24-0.02,0.36-0.06C32.81,17.82,33.11,17.2,32.91,16.64 M47.34,17V1.08c0-0.59-0.49-1.08-1.08-1.08
		c-0.54,0-0.96,0.39-1.05,0.9L41.1,9.1l-4.08-8.15C36.95,0.41,36.51,0,35.96,0c-0.6,0-1.08,0.48-1.08,1.08v0.19
		c0,0.02,0,0.03,0,0.05V17c0,0.59,0.49,1.07,1.08,1.07c0.6,0,1.08-0.48,1.08-1.07V5.83l3.09,6.16c0.18,0.37,0.56,0.6,0.97,0.6
		c0.41,0,0.79-0.23,0.97-0.6l3.1-6.19V17c0,0.59,0.49,1.07,1.08,1.07S47.34,17.59,47.34,17 M63.67,9.19c0,1.78-0.66,3.45-1.86,4.7
		c-1.19,1.24-2.76,1.92-4.43,1.92c-1.67,0-3.24-0.68-4.43-1.92c-1.2-1.25-1.86-2.92-1.86-4.7s0.66-3.45,1.86-4.7
		c1.19-1.24,2.76-1.92,4.43-1.92c1.67,0,3.24,0.68,4.43,1.92C63.01,5.74,63.67,7.41,63.67,9.19 M65.18,12.58
		c0.44-1.08,0.66-2.22,0.66-3.4c0-1.18-0.22-2.32-0.66-3.4c-0.42-1.04-1.03-1.98-1.8-2.78C62.6,2.2,61.7,1.56,60.69,1.11
		c-1.05-0.46-2.16-0.7-3.31-0.7c-1.15,0-2.26,0.23-3.31,0.7C53.06,1.56,52.16,2.2,51.38,3c-0.77,0.81-1.38,1.74-1.8,2.78
		c-0.44,1.08-0.66,2.22-0.66,3.4c0,1.18,0.22,2.32,0.66,3.4c0.42,1.04,1.03,1.98,1.8,2.79c0.77,0.81,1.68,1.45,2.69,1.89
		c1.05,0.46,2.16,0.7,3.31,0.7c1.15,0,2.26-0.23,3.31-0.7c1.01-0.44,1.91-1.08,2.69-1.89C64.15,14.56,64.76,13.62,65.18,12.58
		 M76.01,5.84c0,2.03-1.39,3.69-3.09,3.69c-0.03,0-0.06,0.01-0.09,0.02c-0.03,0-0.05-0.01-0.08,0c-0.02-0.01-0.04-0.01-0.06-0.01
		h-2.85V2.15h2.85c0.04,0,0.07-0.02,0.11-0.02c0.04,0,0.07,0.02,0.11,0.02C74.62,2.15,76.01,3.8,76.01,5.84 M76.68,9.91
		c0.96-1.1,1.49-2.54,1.49-4.07s-0.53-2.98-1.49-4.07c-0.48-0.55-1.04-0.98-1.67-1.28C74.35,0.16,73.64,0,72.92,0
		c-0.04,0-0.07,0.02-0.11,0.02C72.76,0.02,72.73,0,72.69,0h-3.94c-0.6,0-1.08,0.48-1.08,1.08V17c0,0.59,0.48,1.07,1.08,1.07
		c0.6,0,1.08-0.48,1.08-1.07v-5.32h2.49l3.85,5.91c0.21,0.32,0.56,0.49,0.91,0.49c0.2,0,0.41-0.06,0.59-0.17
		c0.5-0.32,0.65-0.99,0.32-1.49l-3.32-5.09c0.11-0.04,0.22-0.09,0.33-0.14C75.64,10.89,76.21,10.46,76.68,9.91 M98.88,10.54
		c0,1.47-0.46,2.83-1.28,3.85c-0.77,0.95-1.78,1.47-2.83,1.47c-1.06,0-2.06-0.52-2.84-1.47c-0.81-0.99-1.25-2.31-1.27-3.73v-0.24
		c0.03-1.42,0.47-2.74,1.27-3.73c0.77-0.95,1.78-1.48,2.84-1.48c1.06,0,2.06,0.52,2.83,1.48C98.42,7.71,98.88,9.08,98.88,10.54
		 M99.28,15.75c1.14-1.4,1.76-3.25,1.76-5.2s-0.63-3.8-1.76-5.2c-0.57-0.7-1.24-1.26-2-1.65c-0.8-0.42-1.65-0.63-2.53-0.63
		c-0.88,0-1.73,0.21-2.53,0.63c-0.58,0.3-1.11,0.7-1.58,1.19V4.09c0-0.59-0.49-1.08-1.08-1.08c-0.6,0-1.08,0.48-1.08,1.08v6.22
		c0,0.08-0.01,0.16-0.01,0.24c0,0.08,0.01,0.16,0.01,0.23v11.17c0,0.59,0.49,1.08,1.08,1.08c0.6,0,1.08-0.48,1.08-1.08v-5.74
		c0.47,0.49,1,0.89,1.58,1.19c0.8,0.41,1.65,0.63,2.53,0.63c0.88,0,1.73-0.21,2.53-0.63C98.04,17.01,98.71,16.45,99.28,15.75
		 M108.64,8.25c0.25-0.44,0.54-1.18,0.55-2.17V6.05c0-0.76-0.24-1.48-0.67-2.01c-0.5-0.63-1.22-0.97-2.02-0.97
		c-0.67,0-1.28,0.19-1.8,0.55c-0.01,0.01-0.16,1.17-0.17,1.18c-0.01-0.02,0.11-1.19,0.1-1.2c-0.18-0.34-0.54-0.58-0.96-0.58
		c-0.6,0-1.08,0.48-1.08,1.08V17c0,0.59,0.49,1.07,1.08,1.07s1.08-0.48,1.08-1.07v-5.49c0-1.5,0.05-3.39,0.42-4.73
		c0.44-1.56,1.06-1.56,1.32-1.56c0.41,0,0.53,0.55,0.53,0.85c0,0.62-0.21,1.03-0.31,1.2c-0.01,0.01-0.02,0.03-0.03,0.04
		c-0.01,0.02-0.03,0.04-0.03,0.04c0.01-0.01,0.01-0.02,0.01-0.02l0,0c-0.1,0.16-0.16,0.35-0.16,0.56c0,0.6,0.49,1.09,1.1,1.09
		c0.27,0,0.51-0.1,0.7-0.26l0.01,0.01c0.01-0.01,0.02-0.03,0.03-0.04C108.48,8.57,108.58,8.42,108.64,8.25 M120.73,10.54
		c0,1.47-0.46,2.83-1.28,3.85c-0.77,0.95-1.78,1.47-2.84,1.47s-2.06-0.52-2.84-1.47c-0.83-1.02-1.28-2.39-1.28-3.85
		c0-1.47,0.46-2.83,1.28-3.85c0.77-0.95,1.78-1.48,2.84-1.48s2.06,0.52,2.84,1.48C120.27,7.71,120.73,9.08,120.73,10.54
		 M121.13,15.75c1.14-1.4,1.76-3.25,1.76-5.2s-0.63-3.8-1.76-5.2c-0.57-0.7-1.24-1.26-1.99-1.65c-0.8-0.42-1.65-0.63-2.53-0.63
		c-0.88,0-1.73,0.21-2.53,0.63c-0.75,0.39-1.42,0.95-1.99,1.65c-1.14,1.4-1.76,3.25-1.76,5.2s0.63,3.8,1.76,5.2
		c0.57,0.7,1.24,1.26,1.99,1.65c0.8,0.41,1.65,0.63,2.53,0.63c0.88,0,1.73-0.21,2.53-0.63C119.89,17.01,120.56,16.45,121.13,15.75
		 M135.56,4.55c0.26-0.54,0.02-1.18-0.52-1.43c-0.54-0.25-1.19-0.02-1.44,0.51l-3.99,8.38l-4.46-8.42
		c-0.28-0.53-0.93-0.73-1.46-0.45c-0.53,0.28-0.73,0.93-0.46,1.45l5.22,9.86l-2.64,5.54c-0.26,0.54-0.02,1.18,0.52,1.43
		c0.15,0.07,0.31,0.1,0.46,0.1c0.41,0,0.79-0.23,0.98-0.62L135.56,4.55z M145.82,9.47h-8.07c0.17-1.05,0.58-2.01,1.2-2.77
		c0.77-0.95,1.78-1.48,2.84-1.48c1.05,0,2.06,0.52,2.83,1.48C145.24,7.46,145.65,8.42,145.82,9.47 M148.07,10.54
		c0-1.95-0.63-3.8-1.76-5.2c-0.57-0.7-1.24-1.26-1.99-1.65c-0.8-0.42-1.65-0.63-2.53-0.63c-0.88,0-1.73,0.21-2.53,0.63
		c-0.75,0.39-1.42,0.95-1.99,1.65c-1.14,1.4-1.76,3.25-1.76,5.2s0.63,3.8,1.76,5.2c0.57,0.7,1.24,1.26,1.99,1.65
		c0.8,0.41,1.65,0.63,2.53,0.63c1.17,0,2.32-0.38,3.3-1.11c0.93-0.68,1.69-1.64,2.21-2.78c0.25-0.54,0.01-1.18-0.54-1.43
		c-0.55-0.25-1.19-0.01-1.44,0.53c-0.37,0.81-0.9,1.47-1.53,1.94c-0.61,0.45-1.31,0.69-2.02,0.69c-1.06,0-2.06-0.52-2.84-1.47
		c-0.62-0.76-1.03-1.73-1.2-2.77h9.24C147.59,11.62,148.07,11.14,148.07,10.54 M162.17,7.56c-1.04-2.73-3.4-4.5-6.02-4.5
		c-0.91,0-1.79,0.21-2.62,0.61c-0.78,0.39-1.49,0.94-2.08,1.64c-1.2,1.4-1.86,3.26-1.86,5.22s0.66,3.82,1.86,5.22
		c0.6,0.7,1.3,1.25,2.08,1.64c0.83,0.41,1.71,0.62,2.62,0.62c1.32,0,2.59-0.44,3.67-1.28c1.03-0.79,1.84-1.89,2.33-3.19
		c0.21-0.55-0.07-1.18-0.63-1.39c-0.56-0.21-1.19,0.07-1.4,0.62c-0.36,0.93-0.92,1.71-1.64,2.26c-0.7,0.54-1.51,0.83-2.34,0.83
		c-2.42,0-4.39-2.39-4.39-5.33s1.97-5.33,4.39-5.33c0.83,0,1.65,0.29,2.35,0.83c0.72,0.56,1.28,1.34,1.64,2.27
		c0.16,0.43,0.58,0.7,1.01,0.7c0.13,0,0.26-0.02,0.38-0.07C162.09,8.74,162.38,8.12,162.17,7.56 M166.8,14.58V5.65h1.95
		c0.6,0,1.08-0.48,1.08-1.08c0-0.59-0.49-1.08-1.08-1.08h-1.95V1.51c0-0.59-0.49-1.08-1.08-1.08c-0.6,0-1.08,0.48-1.08,1.08V3.5
		h-0.98c-0.6,0-1.08,0.48-1.08,1.08c0,0.59,0.49,1.08,1.08,1.08h0.98v8.93c0,0.76,0.24,1.48,0.67,2.03
		c0.49,0.62,1.19,0.98,1.93,0.98h1.52c0.6,0,1.08-0.48,1.08-1.08c0-0.59-0.49-1.08-1.08-1.08h-1.52
		C167.08,15.44,166.8,15.1,166.8,14.58 M180.87,10.54c0,1.47-0.46,2.83-1.28,3.85c-0.77,0.95-1.78,1.47-2.84,1.47
		s-2.06-0.52-2.84-1.47c-0.83-1.02-1.28-2.39-1.28-3.85c0-1.47,0.46-2.83,1.28-3.85c0.77-0.95,1.78-1.48,2.84-1.48
		s2.06,0.52,2.84,1.48C180.42,7.71,180.87,9.08,180.87,10.54 M181.28,15.75c1.14-1.4,1.76-3.25,1.76-5.2s-0.63-3.8-1.76-5.2
		c-0.57-0.7-1.24-1.26-1.99-1.65c-0.8-0.42-1.65-0.63-2.53-0.63s-1.73,0.21-2.53,0.63c-0.75,0.39-1.42,0.95-1.99,1.65
		c-1.14,1.4-1.76,3.25-1.76,5.2s0.63,3.8,1.76,5.2c0.57,0.7,1.24,1.26,1.99,1.65c0.8,0.41,1.65,0.63,2.53,0.63s1.73-0.21,2.53-0.63
		C180.03,17.01,180.7,16.45,181.28,15.75 M194.92,13.34L194.92,13.34L194.92,13.34c0-1.01-0.51-2.02-1.4-2.76
		c-0.87-0.72-1.98-1.12-3.15-1.12h-1.4c0,0,0,0-0.01,0c-0.63,0-1.2-0.21-1.61-0.58c-0.35-0.32-0.55-0.74-0.55-1.14
		c0-0.76,0.22-1.42,0.63-1.88c0.38-0.43,0.91-0.65,1.53-0.65h1.41h0c0.75,0,1.23,0.4,1.51,0.73c0.43,0.51,0.66,1.23,0.66,2.02
		c0,0.59,0.49,1.08,1.08,1.08s1.08-0.48,1.08-1.08c0-1.29-0.41-2.49-1.15-3.38c-0.81-0.97-1.94-1.51-3.18-1.51h-1.41h0
		c-2.51,0-4.33,1.97-4.33,4.68c0,0.08,0.01,0.16,0.02,0.23c0.07,0.93,0.5,1.83,1.23,2.5c0.8,0.72,1.86,1.12,3,1.14
		c0.02,0,0.05,0.01,0.07,0.01h1.41l0,0c1.34,0,2.38,0.93,2.38,1.72c0,0,0,0,0,0l0,0c0,0.72-0.25,1.38-0.71,1.84
		c-0.44,0.44-1.03,0.69-1.68,0.69h0h-1.41c-1.31,0-2.38-1.23-2.38-2.74c0-0.6-0.49-1.08-1.08-1.08c-0.6,0-1.08,0.48-1.08,1.08
		c0,1.29,0.46,2.5,1.29,3.42c0.42,0.46,0.9,0.82,1.45,1.07c0.57,0.27,1.18,0.4,1.81,0.4h0h1.41c1.23,0,2.38-0.47,3.23-1.33
		C194.45,15.82,194.92,14.63,194.92,13.34"/>
	<path class="st0" d="M218.74,17.1l-12.78-7.92l12.78-7.91l-0.55-0.89l-13.5,8.36v0.89l13.5,8.36L218.74,17.1z M229.1,1.99
		c-0.73-0.8-1.69-1.27-2.71-1.4c-0.09-0.03-0.18-0.06-0.29-0.06h-3.74c-0.59,0-1.07,0.48-1.07,1.07c0,0.59,0.48,1.07,1.07,1.07h3.49
		c0,0,0.01,0,0.01,0c1.32,0,2.4,1.22,2.4,2.71c0,1.43-0.99,2.6-2.23,2.69h-3.66c-0.59,0-1.07,0.48-1.07,1.07s0.48,1.07,1.07,1.07
		h3.35c0,0,0.01,0,0.01,0c1.32,0,2.4,1.25,2.4,2.79s-1.07,2.79-2.4,2.79h-3.36c-0.59,0-1.07,0.48-1.07,1.07
		c0,0.59,0.48,1.07,1.07,1.07h3.4c0,0,0.01,0,0.01,0c0.61-0.01,1.2-0.14,1.75-0.4c0.54-0.26,1.03-0.62,1.44-1.08
		c0.83-0.92,1.29-2.14,1.29-3.44c0-1.29-0.46-2.51-1.29-3.44c-0.11-0.13-0.24-0.23-0.37-0.34c0.17-0.14,0.35-0.28,0.5-0.45
		c0.83-0.91,1.29-2.11,1.29-3.39C230.39,4.1,229.93,2.9,229.1,1.99"/>
</g>
</svg>
