
<svg version="1.1" id="Layer_1" xmlns="http://www.w3.org/2000/svg" xmlns:xlink="http://www.w3.org/1999/xlink" x="0px" y="0px"
	 width="1024px" height="1024px" viewBox="0 0 1024 1024" style="enable-background:new 0 0 1024 1024;" xml:space="preserve">
<path style="fill:#666666;" d="M520.9,444.6l-109.6,67.9l109.6,67.9l-4.7,7.6l-115.8-71.7v-7.6L516.1,437L520.9,444.6z M577.6,436H536v9h41.6
	 M577.6,445c21.8,0,37.1,15.9,37.1,38.7l0,0c0,14.3-5.1,18.5-9.6,20.6c-5.8,2.7-14.3,3.1-23.6,3.1c-1.3,0-2.6,0-3.9,0v0l0,0h-14.8v9
	h14.8l0,0v0c1.1,0,2.3,0,3.4,0c22.8,0.1,33.7,1.9,33.7,22.2l0,0c0,23.7-15.3,40.2-37.1,40.2l0,0H536v9h41.6l0,0
	c12.6,0,24.2-4.8,32.6-13.5c4.3-4.4,7.6-9.6,9.9-15.6c2.4-6.2,3.6-12.9,3.6-20.1l0,0c0-13.4-4.4-22.1-13.5-26.8
	c9.1-4.9,13.5-14,13.5-28.1l0,0c0-7-1.2-13.6-3.6-19.6c-2.3-5.8-5.6-10.9-9.9-15.1c-8.4-8.4-20-13-32.6-13"/>
</svg>
