<svg version="1.1" id="Layer_1" xmlns="http://www.w3.org/2000/svg" xmlns:xlink="http://www.w3.org/1999/xlink" x="0px" y="0px"
	 width="1024px" height="1024px" viewBox="0 0 1024 1024" style="enable-background:new 0 0 1024 1024;" xml:space="preserve">
<path style="fill:#666666;" d="M513.8,436.5l5.3,8.5l-109.1,67.6L519,580.1l-5.3,8.5l-116-71.8v-8.5L513.8,436.5z M626.2,542.6
	c0-12.7-5.8-22.7-16.8-28.7c-1.3-0.7-2.6-1.4-4.1-2c0.7-0.3,1.4-0.7,2.1-1.1c14.9-7.2,14.8-28.1,14.8-28.1l0,0
	c-0.1-6.7-1.3-13.1-3.6-18.9c-2.3-5.9-5.7-11-10-15.3c-8.5-8.5-20.2-13.2-33-13.2h-12.1c-9.7,0-18.6,3.8-25.1,10.7
	c-6,6.4-9.5,15.2-9.5,24.1h0.1c0,6.8,5.5,12.3,12.3,12.3c6.8,0,12.3-5.5,12.3-12.3c0-6.5-5.1-11.9-11.5-12.3
	c3.9-7.2,11.3-12.6,21.4-12.6l10.3,0c15.2,0,27.5,13.8,27.5,30.8c0,17-12.3,30.8-27.5,30.8v0h-13.1v10h13.1v0
	c15.2,0,27.5,13.8,27.5,30.7s-12.3,30.7-27.5,30.7v0l-10.3,0c-10.1,0-17.5-5.4-21.4-12.6c6.4-0.4,11.5-5.7,11.5-12.3
	c0-6.8-5.5-12.3-12.3-12.3c-6.8,0-12.3,5.5-12.3,12.3h-0.1c0,8.9,3.5,17.7,9.5,24.1c6.5,6.9,15.4,10.7,25.1,10.7l12.1,0
	c16,0,28.5-3.8,37.1-11.4C621.7,569.2,626.2,557.6,626.2,542.6z"/>
</svg>
