<svg version="1.1" id="Layer_1" xmlns="http://www.w3.org/2000/svg" xmlns:xlink="http://www.w3.org/1999/xlink" x="0px" y="0px"
	 width="1024px" height="1024px" viewBox="0 0 1024 1024" style="enable-background:new 0 0 1024 1024;" xml:space="preserve">
<path style="fill:#666666;" d="M520.9,444.6l-109.6,67.9l109.6,67.9l-4.7,7.6l-115.8-71.7v-7.6L516.1,437L520.9,444.6z M610,511.9
	c9.2-4.8,13.7-14,13.7-28.2c0-7-1.2-13.6-3.6-19.6c-2.3-5.8-5.6-10.9-9.9-15.1c-8.4-8.4-20-13-32.6-13H536v0.6v8.4v27.6h68.2h0
	c5.5,0,9.9,4.2,10.4,9.5l0,0c0,0.6,0,1.1,0,1.7c0,14.3-5.1,18.5-9.6,20.6c-5.6,2.6-13.9,3-22.8,3.1c-1.5,0-3.1,0-4.7,0h-14.8v0v9v0
	h14.8c1.6,0,3.1,0,4.7,0c9,0.1,17.2,0.4,22.8,3.1c4.5,2.1,9.6,6.3,9.6,20.6c0,0.6,0,1.1,0,1.7l0,0c-0.5,5.3-5,9.5-10.4,9.5
	c0,0,0,0,0,0H536v27.6v8.4v0.6h41.6c12.6,0,24.2-4.6,32.6-13c4.3-4.3,7.6-9.4,9.9-15.1c2.4-6,3.6-12.6,3.6-19.6
	C623.7,525.9,619.2,516.7,610,511.9z"/>
</svg>
