<svg version="1.1" id="Layer_1" xmlns="http://www.w3.org/2000/svg" xmlns:xlink="http://www.w3.org/1999/xlink" x="0px" y="0px"
	 width="1024px" height="1024px" viewBox="0 0 1024 1024" style="enable-background:new 0 0 1024 1024;" xml:space="preserve">
<path style="fill:#666666;" d="M514.9,437l4.7,7.6L410,512.5l109.6,67.9l-4.7,7.6l-115.8-71.7v-7.6L514.9,437z M576.4,587.7c2,0,3-1.1,3.8-1.9
	l44.8-47.9l-40.4-26.1l40.4-27.3l-44.8-46.6c-0.8-0.8-1.8-1.9-3.7-1.9h-41.6v9h39.7c5.6,5.9,27.7,28.8,36.6,38l-36,24.4h-13.5l0,9
	l13.5,0c5.1,3.3,26.5,17,35.9,23c-8.8,9.5-30.9,33.3-36.6,39.3h-39.6v9H576.4"/>
</svg>
