<?xml version="1.0" encoding="utf-8"?>
<!-- Generator: Adobe Illustrator 23.0.6, SVG Export Plug-In . SVG Version: 6.00 Build 0)  -->
<svg version="1.1" id="Layer_1" xmlns="http://www.w3.org/2000/svg" xmlns:xlink="http://www.w3.org/1999/xlink" x="0px" y="0px"
	 width="1024px" height="1024px" viewBox="0 0 1024 1024" style="enable-background:new 0 0 1024 1024;" xml:space="preserve">
<style type="text/css">
	.st0{fill:#FFFFFF;}
</style>
<path class="st0" d="M610.6,511.7c9.2,4.8,13.7,14,13.7,28.2h0c0,7-1.2,13.6-3.6,19.6c-2.3,5.8-5.6,10.9-9.9,15.1
	c-8.4,8.4-20,13-32.6,13h-23.6v0c-10.1,0-18.3-8.2-18.3-18.3s8.2-18.3,18.3-18.3h50.2c0,0,0,0,0,0c5.4,0,9.9-4.2,10.4-9.5l0,0
	c0-0.6,0-1.1,0-1.7h0c0-14.3-5.1-18.5-9.6-20.6c-5.6-2.6-13.9-3-22.8-3.1c-1.5,0-3.1,0-4.7,0v0l-0.2,0h-14.8v0v-9v0H578v0l0.2,0v0
	c1.6,0,3.1,0,4.7,0c9-0.1,17.2-0.4,22.8-3.1c4.5-2.1,9.6-6.3,9.6-20.6h0c0-0.6,0-1.1,0-1.7l0,0c-0.5-5.3-5-9.5-10.4-9.5c0,0,0,0,0,0
	h-50.2c-10.1,0-18.3-8.2-18.3-18.3s8.2-18.3,18.3-18.3v0h23.6c12.6,0,24.2,4.6,32.6,13c4.3,4.3,7.6,9.4,9.9,15.1
	c2.4,6,3.6,12.6,3.6,19.6h0C624.3,497.7,619.8,506.9,610.6,511.7z M515.5,437.1l-115.8,71.7v7.6l115.8,71.7l4.7-7.6l-109.6-67.9
	l109.6-67.9L515.5,437.1z"/>
<path class="st0" d="M513.8,436.5l5.3,8.5l-109.1,67.6L519,580.1l-5.3,8.5l-116-71.8v-8.5L513.8,436.5z M626.2,542.6
	c0-12.7-5.8-22.7-16.8-28.7c-1.3-0.7-2.6-1.4-4.1-2c0.7-0.3,1.4-0.7,2.1-1.1c14.9-7.2,14.8-28.1,14.8-28.1l0,0
	c-0.1-6.7-1.3-13.1-3.6-18.9c-2.3-5.9-5.7-11-10-15.3c-8.5-8.5-20.2-13.2-33-13.2h-12.1c-9.7,0-18.6,3.8-25.1,10.7
	c-6,6.4-9.5,15.2-9.5,24.1h0.1c0,6.8,5.5,12.3,12.3,12.3c6.8,0,12.3-5.5,12.3-12.3c0-6.5-5.1-11.9-11.5-12.3
	c3.9-7.2,11.3-12.6,21.4-12.6l10.3,0c15.2,0,27.5,13.8,27.5,30.8c0,17-12.3,30.8-27.5,30.8v0h-13.1v10h13.1v0
	c15.2,0,27.5,13.8,27.5,30.7s-12.3,30.7-27.5,30.7v0l-10.3,0c-10.1,0-17.5-5.4-21.4-12.6c6.4-0.4,11.5-5.7,11.5-12.3
	c0-6.8-5.5-12.3-12.3-12.3c-6.8,0-12.3,5.5-12.3,12.3h-0.1c0,8.9,3.5,17.7,9.5,24.1c6.5,6.9,15.4,10.7,25.1,10.7l12.1,0
	c16,0,28.5-3.8,37.1-11.4C621.7,569.2,626.2,557.6,626.2,542.6z"/>
<path class="st0" d="M514.9,437l4.7,7.6L410,512.5l109.6,67.9l-4.7,7.6l-115.8-71.7v-7.6L514.9,437z M576.4,587.7c2,0,3-1.1,3.8-1.9
	l44.8-47.9l-40.4-26.1l40.4-27.3l-44.8-46.6c-0.8-0.8-1.8-1.9-3.7-1.9h-41.6v9h39.7c5.6,5.9,27.7,28.8,36.6,38l-36,24.4h-13.5l0,9
	l13.5,0c5.1,3.3,26.5,17,35.9,23c-8.8,9.5-30.9,33.3-36.6,39.3h-39.6v9H576.4"/>
<path class="st0" d="M610,515.2c7.1,7.9,11,18.4,11,29.5c0,11.1-3.9,21.5-11,29.5c-3.5,3.9-7.7,7.1-12.3,9.2
	c-3.6,1.7-7.3,2.7-11.2,3.2c-0.7,0.2-1.4,0.3-2.1,0.3h-31c-5,0-9.1-4.1-9.1-9.1c0-5,4.1-9.1,9.1-9.1h28.9
	c11.3,0,20.6-10.7,20.6-23.9c0-12.4-8.2-22.6-18.6-23.8c-0.3,0-0.6,0-0.8,0c-0.6,0-1.1-0.1-1.7-0.2h-28.4c-5,0-9.1-4.1-9.1-9.1
	c0-5,4.1-9.1,9.1-9.1h32.4c10.2-1.3,18.2-11.2,18.2-23.1c0-12.8-9.2-23.3-20.6-23.3c-0.2,0-0.3,0-0.5,0h-29.6c-5,0-9.1-4.1-9.1-9.1
	c0-5,4.1-9.1,9.1-9.1h32.1c0.7,0,1.5,0.1,2.1,0.3c8.9,1,17.2,5.3,23.6,12.2c7.2,7.8,11.1,18.1,11.1,29.1s-3.9,21.3-11.1,29.1
	c-1.3,1.4-2.6,2.7-4,3.8C608.1,513.2,609.1,514.1,610,515.2z M517.6,436.5l-115.8,71.7v7.6l115.8,71.7l4.7-7.6L412.7,512l109.6-67.9
	L517.6,436.5z"/>
<path class="st0" d="M520.9,444.6l-109.6,67.9l109.6,67.9l-4.7,7.6l-115.8-71.7v-7.6L516.1,437L520.9,444.6z M610,511.9
	c9.2-4.8,13.7-14,13.7-28.2c0-7-1.2-13.6-3.6-19.6c-2.3-5.8-5.6-10.9-9.9-15.1c-8.4-8.4-20-13-32.6-13H536v0.6v8.4v27.6h68.2h0
	c5.5,0,9.9,4.2,10.4,9.5l0,0c0,0.6,0,1.1,0,1.7c0,14.3-5.1,18.5-9.6,20.6c-5.6,2.6-13.9,3-22.8,3.1c-1.5,0-3.1,0-4.7,0h-14.8v0v9v0
	h14.8c1.6,0,3.1,0,4.7,0c9,0.1,17.2,0.4,22.8,3.1c4.5,2.1,9.6,6.3,9.6,20.6c0,0.6,0,1.1,0,1.7l0,0c-0.5,5.3-5,9.5-10.4,9.5
	c0,0,0,0,0,0H536v27.6v8.4v0.6h41.6c12.6,0,24.2-4.6,32.6-13c4.3-4.3,7.6-9.4,9.9-15.1c2.4-6,3.6-12.6,3.6-19.6
	C623.7,525.9,619.2,516.7,610,511.9z"/>
<path class="st0" d="M520.9,444.6l-109.6,67.9l109.6,67.9l-4.7,7.6l-115.8-71.7v-7.6L516.1,437L520.9,444.6z M577.6,436H536v9h41.6
	 M577.6,445c21.8,0,37.1,15.9,37.1,38.7l0,0c0,14.3-5.1,18.5-9.6,20.6c-5.8,2.7-14.3,3.1-23.6,3.1c-1.3,0-2.6,0-3.9,0v0l0,0h-14.8v9
	h14.8l0,0v0c1.1,0,2.3,0,3.4,0c22.8,0.1,33.7,1.9,33.7,22.2l0,0c0,23.7-15.3,40.2-37.1,40.2l0,0H536v9h41.6l0,0
	c12.6,0,24.2-4.8,32.6-13.5c4.3-4.4,7.6-9.6,9.9-15.6c2.4-6.2,3.6-12.9,3.6-20.1l0,0c0-13.4-4.4-22.1-13.5-26.8
	c9.1-4.9,13.5-14,13.5-28.1l0,0c0-7-1.2-13.6-3.6-19.6c-2.3-5.8-5.6-10.9-9.9-15.1c-8.4-8.4-20-13-32.6-13"/>
</svg>
